<svg width="32" height="32" viewBox="0 0 32 32" fill="none" xmlns="http://www.w3.org/2000/svg">
<path d="M16 0C7.16667 0 0 7.16667 0 16C0 24.8333 7.16667 32 16 32C24.8333 32 32 24.8333 32 16C32 7.16667 24.8333 0 16 0ZM18.6667 25.9792C18.6667 26.3542 18.375 26.6667 18.0208 26.6667H14.0208C13.6458 26.6667 13.3333 26.3542 13.3333 25.9792V22.0208C13.3333 21.6458 13.6458 21.3333 14.0208 21.3333H18.0208C18.375 21.3333 18.6667 21.6458 18.6667 22.0208V25.9792ZM18.625 18.8125C18.6042 19.1042 18.2917 19.3333 17.9167 19.3333H14.0625C13.6667 19.3333 13.3542 19.1042 13.3542 18.8125L13 5.875C13 5.72917 13.0625 5.58333 13.2083 5.5C13.3333 5.39583 13.5208 5.33333 13.7083 5.33333H18.2917C18.4792 5.33333 18.6667 5.39583 18.7917 5.5C18.9375 5.58333 19 5.72917 19 5.875L18.625 18.8125Z" fill="#FDCA40"/>
</svg>
