<svg width="50" height="84" viewBox="0 0 50 84" fill="none" xmlns="http://www.w3.org/2000/svg">
<path d="M0 61.747C0 68.495 5.61591 74 12.5 74C19.3841 74 25 68.495 25 61.747C25 56.0286 21.0877 52.1936 17.6446 48.8185L17.6446 48.8185C15.3259 46.5809 13.1531 44.4158 12.5 42C11.849 44.4137 9.63815 46.5809 7.35543 48.8185L7.35542 48.8185C3.91232 52.1936 0 56.0286 0 61.747Z" opacity="0.05" fill="#0E6BA6"/>
<path d="M25 19.747C25 26.495 30.6159 32 37.5 32C44.3841 32 50 26.495 50 19.747C50 14.0286 46.0877 10.1936 42.6446 6.81853L42.6446 6.81852C40.3259 4.5809 38.1531 2.4158 37.5 0C36.849 2.41373 34.6381 4.5809 32.3554 6.81852L32.3554 6.81852C28.9123 10.1936 25 14.0286 25 19.747Z" opacity="0.05" fill="#0E6BA6"/>
</svg>
