<svg width="32" height="32" viewBox="0 0 32 32" fill="none" xmlns="http://www.w3.org/2000/svg">
<path d="M23.9375 20.7083C23.9375 21.0625 23.7917 21.4167 23.5417 21.6667L21.6667 23.5417C21.4167 23.7917 21.0625 23.9375 20.7083 23.9375C20.3542 23.9375 20.0208 23.7917 19.7708 23.5417L16 19.7708L12.2292 23.5417C11.9792 23.7917 11.6458 23.9375 11.2917 23.9375C10.9375 23.9375 10.5833 23.7917 10.3333 23.5417L8.45833 21.6667C8.20833 21.4167 8.0625 21.0625 8.0625 20.7083C8.0625 20.3542 8.20833 20.0208 8.45833 19.7708L12.2292 16L8.45833 12.2292C8.20833 11.9792 8.0625 11.6458 8.0625 11.2917C8.0625 10.9375 8.20833 10.5833 8.45833 10.3333L10.3333 8.45833C10.5833 8.20833 10.9375 8.0625 11.2917 8.0625C11.6458 8.0625 11.9792 8.20833 12.2292 8.45833L16 12.2292L19.7708 8.45833C20.0208 8.20833 20.3542 8.0625 20.7083 8.0625C21.0625 8.0625 21.4167 8.20833 21.6667 8.45833L23.5417 10.3333C23.7917 10.5833 23.9375 10.9375 23.9375 11.2917C23.9375 11.6458 23.7917 11.9792 23.5417 12.2292L19.7708 16L23.5417 19.7708C23.7917 20.0208 23.9375 20.3542 23.9375 20.7083ZM32 16C32 7.16667 24.8333 0 16 0C7.16667 0 0 7.16667 0 16C0 24.8333 7.16667 32 16 32C24.8333 32 32 24.8333 32 16Z" fill="#E33F1E"/>
</svg>
