<svg width="18" height="18" viewBox="0 0 18 18" fill="none" xmlns="http://www.w3.org/2000/svg">
<path d="M15.3575 2.6425C13.6575 0.9425 11.4 0 9 0C4.0425 0 0 4.0425 0 9C0 13.9575 4.0425 18 9 18C13.9575 18 18 13.9575 18 9C18 6.6 17.0575 4.3425 15.3575 2.6425ZM9 14.8425C6.28583 14.8425 4.07167 12.6283 4.07167 9.91417C4.07167 7.61417 5.61417 6.07167 6.97167 4.71417C7.87167 3.81417 8.74333 2.9425 9 1.97167C9.2575 2.94333 10.1142 3.81417 11.0283 4.71417C12.3858 6.07167 13.9283 7.61417 13.9283 9.91417C13.9283 12.6283 11.7142 14.8425 9 14.8425Z" fill="white"/>
</svg>
