<svg width="27" height="28" viewBox="0 0 27 28" fill="none" xmlns="http://www.w3.org/2000/svg">
<path fill-rule="evenodd" clip-rule="evenodd" d="M21.8528 11.9264C21.8528 17.4086 17.4086 21.8528 11.9264 21.8528C6.44419 21.8528 2 17.4086 2 11.9264C2 6.44419 6.44419 2 11.9264 2C17.4086 2 21.8528 6.44419 21.8528 11.9264ZM18.9554 21.5623C16.9843 23.0026 14.5546 23.8528 11.9264 23.8528C5.33962 23.8528 0 18.5131 0 11.9264C0 5.33962 5.33962 0 11.9264 0C18.5131 0 23.8528 5.33962 23.8528 11.9264C23.8528 15.1634 22.5632 18.0992 20.4697 20.2481L25.7525 25.5309C26.143 25.9214 26.143 26.5546 25.7525 26.9451C25.362 27.3356 24.7288 27.3356 24.3383 26.9451L18.9554 21.5623Z" fill="white"/>
</svg>
