<svg width="22" height="23" viewBox="0 0 22 23" fill="none" xmlns="http://www.w3.org/2000/svg">
<path fill-rule="evenodd" clip-rule="evenodd" d="M18 10C18 14.4183 14.4183 18 10 18C5.58172 18 2 14.4183 2 10C2 5.58172 5.58172 2 10 2C14.4183 2 18 5.58172 18 10ZM15.7608 18.175C14.1323 19.3246 12.145 20 10 20C4.47715 20 0 15.5228 0 10C0 4.47715 4.47715 0 10 0C15.5228 0 20 4.47715 20 10C20 12.6561 18.9645 15.0703 17.2752 16.8609L21.7071 21.2929C22.0976 21.6834 22.0976 22.3166 21.7071 22.7071C21.3166 23.0976 20.6834 23.0976 20.2929 22.7071L15.7608 18.175Z" fill="#0D1214"/>
</svg>
