<svg width="32" height="32" viewBox="0 0 32 32" fill="none" xmlns="http://www.w3.org/2000/svg">
<path d="M26.75 12.625C26.75 12.9792 26.625 13.3125 26.375 13.5625L15.0625 24.875C14.8125 25.125 14.4583 25.2708 14.1042 25.2708C13.7708 25.2708 13.4167 25.125 13.1667 24.875L5.625 17.3333C5.375 17.0833 5.25 16.75 5.25 16.3958C5.25 16.0417 5.375 15.6875 5.625 15.4375L7.52083 13.5625C7.77083 13.3125 8.10417 13.1667 8.45833 13.1667C8.8125 13.1667 9.14583 13.3125 9.39583 13.5625L14.1042 18.2708L22.6042 9.79167C22.8542 9.54167 23.1875 9.39583 23.5417 9.39583C23.8958 9.39583 24.2292 9.54167 24.4792 9.79167L26.375 11.6667C26.625 11.9167 26.75 12.2708 26.75 12.625ZM32 16C32 7.16667 24.8333 0 16 0C7.16667 0 0 7.16667 0 16C0 24.8333 7.16667 32 16 32C24.8333 32 32 24.8333 32 16Z" fill="#3FA21C"/>
</svg>
